<svg xmlns="http://www.w3.org/2000/svg" viewBox="0 48 200 72" fill="currentColor" role="img">
  <g transform="translate(0.000000,200.000000) scale(0.100000,-0.100000)">
    <path d="M620 1430 c-82 -14 -135 -43 -285 -156 -100 -75 -185 -124 -216 -124
-14 0 -33 -7 -40 -16 -11 -14 -10 -19 11 -37 63 -51 294 -141 442 -171 108
-22 292 -21 391 3 75 18 79 18 155 0 98 -24 282 -25 390 -3 146 29 380 120
442 171 21 18 22 23 11 37 -7 9 -25 16 -40 16 -34 0 -101 40 -236 139 -130 96
-192 129 -266 140 -96 16 -216 -18 -322 -90 l-58 -40 -42 29 c-70 49 -146 83
-216 98 -36 7 -68 13 -71 13 -3 -1 -25 -5 -50 -9z m823 -120 c76 -38 177 -118
171 -135 -9 -24 -23 -19 -118 45 -54 36 -105 63 -128 66 -42 7 -53 17 -44 41
8 20 59 13 119 -17z" />
  </g>
</svg>
