<svg xmlns="http://www.w3.org/2000/svg" viewBox="0 0 200 200" fill="currentColor" role="img">
  <g transform="translate(0.000000,200.000000) scale(0.100000,-0.100000)">
    <path d="M894 1925 c-92 -20 -181 -69 -249 -139 -107 -110 -145 -218 -145
-413 0 -92 -3 -123 -12 -123 -67 0 -158 -65 -189 -135 -17 -37 -19 -75 -19
-450 0 -270 4 -424 11 -450 15 -53 91 -129 144 -144 54 -15 1074 -15 1129 0
54 15 121 80 140 136 23 67 24 814 1 890 -23 78 -117 153 -192 153 -10 0 -13
30 -13 118 0 69 -6 143 -15 181 -44 187 -197 337 -382 376 -82 18 -129 18
-209 0z m286 -92 c114 -54 185 -131 230 -248 18 -48 24 -87 28 -197 l5 -138
-51 0 -50 0 -4 143 c-4 164 -19 209 -96 285 -67 68 -139 97 -242 97 -77 0 -92
-3 -152 -33 -73 -36 -124 -87 -160 -161 -20 -40 -23 -65 -26 -188 l-3 -143
-50 0 -49 0 0 110 c0 60 5 133 11 162 33 156 139 275 294 331 38 13 73 17 150
14 88 -2 108 -6 165 -34z m-53 -149 c56 -27 91 -63 126 -128 18 -35 22 -61 25
-173 l4 -133 -281 0 -281 0 0 119 c0 133 12 180 60 241 82 104 223 134 347 74z
m-61 -765 c57 -27 86 -75 86 -141 0 -36 -6 -58 -22 -80 -20 -27 -21 -36 -14
-142 8 -144 7 -146 -116 -146 -123 0 -124 2 -116 146 7 106 6 115 -14 142 -51
69 -19 180 63 221 53 26 80 26 133 0z" />
  </g>
</svg>
