<svg xmlns="http://www.w3.org/2000/svg" viewBox="0 0 200 200" fill="currentColor" role="img">
  <g transform="translate(0.000000,200.000000) scale(0.100000,-0.100000)">
    <path d="M227 1723 c-4 -3 -7 -248 -7 -543 l0 -537 -50 -5 c-130 -13 -205
-144 -151 -264 27 -60 80 -96 146 -102 71 -6 97 2 140 40 70 61 70 59 73 401
l3 307 45 0 c42 0 44 -1 44 -31 0 -17 4 -38 10 -48 6 -12 5 -28 -2 -48 -12
-33 -5 -74 17 -96 10 -10 12 -26 8 -51 -4 -28 -1 -44 14 -64 14 -19 18 -38 15
-63 -3 -27 2 -42 22 -67 15 -17 37 -32 49 -34 14 -2 23 -11 25 -25 4 -25 55
-73 78 -73 8 0 14 -7 14 -16 0 -8 14 -29 30 -46 27 -27 35 -29 73 -24 23 3 48
5 55 5 6 0 32 -1 57 0 25 0 54 0 65 0 11 0 40 0 65 0 25 -1 51 0 58 0 6 0 31
-2 54 -5 38 -5 46 -3 73 24 16 17 30 37 30 46 0 9 11 18 24 22 29 7 63 41 68
69 2 12 13 21 25 23 12 2 34 17 49 34 20 25 25 40 22 67 -3 25 1 44 15 63 15
20 18 36 14 64 -4 25 -2 41 8 51 22 22 29 63 17 96 -7 20 -8 36 -2 48 6 10 10
31 10 48 0 30 2 31 44 31 l45 0 3 -307 c3 -342 3 -340 73 -401 43 -38 69 -46
140 -40 138 12 211 171 130 287 -32 47 -95 81 -148 81 l-37 0 -2 543 -3 542
-71 3 c-85 3 -84 5 -84 -125 l0 -83 -97 -125 -98 -125 -80 0 c-60 0 -100 7
-160 27 -114 38 -256 38 -370 0 -60 -20 -100 -27 -161 -27 l-81 0 -96 125 -97
124 0 83 c0 129 0 128 -79 128 -37 0 -71 -3 -74 -7z m83 -178 c0 -104 -2 -125
-15 -125 -13 0 -15 21 -15 125 0 104 2 125 15 125 13 0 15 -21 15 -125z m1410
0 c0 -104 -2 -125 -15 -125 -13 0 -15 21 -15 125 0 104 2 125 15 125 13 0 15
-21 15 -125z m-1289 -192 c67 -88 67 -83 4 -83 l-55 0 0 70 c0 39 2 70 4 70 2
0 23 -26 47 -57z m1186 -80 c-3 -2 -28 -3 -56 -1 l-52 3 53 69 53 69 3 -68 c2
-37 1 -69 -1 -72z m-1307 42 c0 -33 -4 -45 -15 -45 -11 0 -15 12 -15 45 0 33
4 45 15 45 11 0 15 -12 15 -45z m1410 0 c0 -33 -4 -45 -15 -45 -11 0 -15 12
-15 45 0 33 4 45 15 45 11 0 15 -12 15 -45z m-553 -81 c74 -25 91 -27 316 -31
l237 -5 0 -59 0 -59 -221 0 -222 0 -57 29 c-159 81 -273 81 -442 1 l-63 -30
-217 0 -218 0 0 59 0 59 238 5 c223 4 241 6 312 30 107 37 229 37 337 1z m-3
-168 c73 -35 146 -59 166 -54 31 7 27 -173 -4 -231 -12 -22 -16 -44 -12 -63 4
-21 0 -37 -14 -55 -11 -14 -20 -31 -20 -37 0 -6 -15 -18 -33 -26 -19 -9 -39
-30 -50 -52 -12 -24 -26 -38 -37 -38 -10 0 -22 -5 -25 -10 -5 -8 -11 -7 -21 0
-7 7 -28 11 -46 11 -42 -2 -94 -2 -136 0 -18 0 -39 -4 -46 -11 -10 -7 -16 -8
-21 0 -3 5 -15 10 -25 10 -11 0 -25 14 -37 38 -11 22 -31 43 -50 52 -18 8 -33
20 -33 26 0 6 -9 23 -20 37 -14 18 -18 34 -14 55 4 19 0 41 -12 63 -32 59 -35
238 -4 231 20 -4 116 27 156 50 100 59 224 60 338 4z m-854 -317 c0 -212 -3
-270 -12 -267 -10 4 -14 66 -16 259 -1 139 0 259 3 266 2 7 9 13 15 13 7 0 10
-91 10 -271z m1405 1 c0 -202 -3 -264 -12 -268 -10 -3 -13 55 -13 268 0 213 3
271 13 268 9 -4 12 -66 12 -268z m-1125 235 c0 -20 -5 -25 -24 -25 -14 0 -28
5 -31 10 -12 19 4 40 30 40 20 0 25 -5 25 -25z m875 0 c0 -14 -8 -21 -27 -23
-24 -3 -28 0 -28 23 0 23 4 26 28 23 19 -2 27 -9 27 -23z m-880 -125 c0 -16
-6 -26 -19 -28 -25 -5 -39 12 -31 38 10 31 50 24 50 -10z m874 16 c15 -18 3
-46 -20 -46 -22 0 -34 22 -25 45 7 19 30 19 45 1z m-839 -141 c0 -27 -26 -40
-46 -24 -19 16 -18 36 3 47 24 14 43 4 43 -23z m820 1 c0 -20 -25 -37 -44 -30
-19 7 -22 50 -3 57 17 6 47 -11 47 -27z m-790 -111 c10 -12 10 -18 0 -30 -7
-8 -18 -15 -25 -15 -7 0 -18 7 -25 15 -10 12 -10 18 0 30 7 8 18 15 25 15 7 0
18 -7 25 -15z m750 0 c10 -12 10 -18 0 -30 -7 -8 -18 -15 -25 -15 -7 0 -18 7
-25 15 -10 12 -10 18 0 30 7 8 18 15 25 15 7 0 18 -7 25 -15z m-1182 -120 c3
-76 10 -85 60 -85 l33 0 -17 -29 c-58 -98 -208 -70 -230 43 -13 70 58 151 126
144 24 -3 25 -7 28 -73z m1651 57 c35 -19 71 -72 71 -105 0 -36 -30 -87 -62
-107 -61 -37 -136 -19 -172 41 l-17 29 30 0 c56 0 61 6 61 79 0 37 3 71 7 74
12 12 48 7 82 -11z m-1125 -36 c9 -13 7 -20 -8 -31 -23 -17 -46 -4 -46 25 0
32 36 36 54 6z m550 18 c19 -7 21 -35 4 -52 -7 -7 -17 -8 -30 -1 -21 11 -23
30 -6 47 14 14 12 14 32 6z m-456 -122 c4 -28 -24 -40 -45 -19 -21 21 -9 49
19 45 15 -2 24 -11 26 -26z m128 13 c7 -18 -13 -45 -33 -45 -17 0 -27 24 -19
45 7 20 45 19 52 0z m122 -13 c4 -28 -24 -40 -45 -19 -21 21 -9 49 19 45 15
-2 24 -11 26 -26z m128 13 c7 -18 -13 -45 -33 -45 -17 0 -27 24 -19 45 7 20
45 19 52 0z" />
  </g>
</svg>
