<svg xmlns="http://www.w3.org/2000/svg" viewBox="89 37 108 108" fill="currentColor" role="img">
  <g transform="translate(0.000000,200.000000) scale(0.100000,-0.100000)">
    <path d="M1770 1329 c-64 -58 -192 -117 -302 -139 -51 -10 -157 -21 -235 -25
l-143 -7 0 27 c0 18 -6 29 -20 32 -11 3 -20 14 -20 24 0 11 -7 19 -15 19 -8 0
-15 -9 -15 -20 0 -11 -7 -20 -15 -20 -9 0 -15 -9 -15 -25 0 -14 -4 -25 -10
-25 -5 0 -10 -18 -10 -40 l0 -40 210 0 c222 0 255 -5 299 -49 11 -11 49 -32
83 -46 86 -35 165 -87 215 -143 47 -52 64 -52 93 4 22 42 21 435 0 479 -22 43
-48 41 -100 -6z" />
  </g>
</svg>
