<svg xmlns="http://www.w3.org/2000/svg" viewBox="-7.6 -7.8 215.1 215.1" fill="currentColor" role="img">
  <g transform="translate(0.000000,200.000000) scale(0.100000,-0.100000)">
    <path d="M968 1950 c-9 -6 -29 -47 -43 -93 -121 -368 -399 -647 -774 -778
-102 -35 -124 -57 -104 -102 8 -18 34 -32 104 -56 374 -131 641 -398 770 -769
35 -103 57 -125 103 -104 18 8 30 30 51 94 120 368 399 649 773 779 103 35
125 57 104 103 -8 18 -30 30 -92 50 -97 31 -220 91 -315 154 -85 56 -245 214
-307 302 -59 84 -128 223 -163 328 -31 96 -59 120 -107 92z m71 -317 c37 -76
132 -221 161 -248 32 -29 24 -42 -37 -61 -114 -35 -383 -13 -383 30 0 8 7 19
16 26 24 20 146 209 173 268 14 28 27 52 31 52 3 0 21 -30 39 -67z m-362 -470
c24 -79 24 -247 0 -325 -10 -32 -21 -58 -25 -58 -4 0 -47 29 -94 64 -48 35
-125 83 -172 107 -47 24 -86 46 -86 49 0 3 42 27 93 53 50 26 128 75 172 107
44 33 83 60 87 60 4 0 15 -26 25 -57z m757 -2 c44 -33 121 -81 172 -108 52
-26 94 -50 94 -53 0 -3 -42 -27 -94 -53 -51 -27 -128 -75 -172 -108 -43 -32
-82 -59 -86 -59 -19 0 -42 120 -42 220 0 100 23 220 42 220 4 0 43 -27 86 -59z
m-521 26 c85 -11 230 -1 281 19 17 6 18 4 12 -17 -4 -13 -12 -63 -18 -112 -12
-84 -4 -186 18 -266 6 -21 5 -23 -12 -17 -10 4 -58 13 -106 19 -86 11 -231 1
-282 -19 -17 -6 -18 -4 -12 17 3 13 12 61 18 107 11 79 3 195 -18 271 -6 21
-5 23 12 17 10 -4 58 -13 107 -19z m255 -512 c28 -9 52 -21 52 -26 0 -6 -17
-32 -39 -58 -50 -59 -101 -141 -143 -225 -18 -36 -35 -66 -39 -66 -3 0 -15 19
-25 42 -29 65 -111 197 -155 249 -21 26 -39 52 -39 58 0 9 66 32 130 45 46 9
205 -3 258 -19z" />
  </g>
</svg>
