<svg xmlns="http://www.w3.org/2000/svg" viewBox="-6.2 -6.7 212.4 212.4" fill="currentColor" role="img">
  <g transform="translate(0.000000,200.000000) scale(0.100000,-0.100000)">
    <path d="M786 1899 l-26 -20 0 -290 c0 -159 -2 -289 -5 -289 -2 0 -121 38
-263 85 -143 47 -271 85 -285 85 -37 0 -46 -19 -113 -222 -49 -150 -56 -180
-47 -201 10 -21 46 -36 280 -112 147 -48 271 -90 274 -93 4 -4 -67 -108 -157
-232 -90 -124 -167 -233 -170 -244 -9 -29 19 -57 176 -171 113 -82 152 -105
177 -105 31 0 41 12 199 230 92 127 171 229 176 228 5 -2 82 -105 172 -228
153 -212 164 -225 197 -228 29 -2 53 12 179 103 157 114 185 142 176 171 -3
11 -80 120 -170 244 -90 124 -161 228 -157 232 3 3 127 45 274 93 234 76 270
91 280 112 9 21 2 51 -47 201 -67 203 -76 222 -113 222 -14 0 -142 -38 -285
-85 -142 -47 -261 -85 -263 -85 -3 0 -5 130 -5 289 l0 290 -26 20 c-25 20 -40
21 -214 21 -174 0 -189 -1 -214 -21z m334 -408 l0 -300 25 -19 25 -20 78 24
c42 13 172 55 289 93 l212 68 37 -109 c20 -60 32 -113 28 -118 -5 -4 -130 -47
-279 -94 -269 -87 -305 -104 -305 -145 0 -9 79 -124 175 -256 96 -132 175
-242 175 -245 0 -3 -44 -36 -96 -74 -76 -54 -98 -66 -105 -55 -4 8 -84 118
-176 244 -164 224 -169 230 -203 230 -34 0 -39 -6 -203 -230 -92 -126 -172
-236 -176 -244 -7 -11 -30 1 -105 55 -52 38 -94 74 -92 80 2 6 79 113 170 237
91 125 168 237 171 250 12 47 -17 61 -300 153 -148 47 -274 90 -279 94 -4 5 8
57 28 118 l37 109 272 -89 c150 -49 282 -90 295 -90 12 0 32 8 42 17 19 17 20
32 20 317 l0 298 120 0 120 0 0 -299z" />
  </g>
</svg>
