<svg xmlns="http://www.w3.org/2000/svg" viewBox="-6.6 -6.5 212.7 212.7" fill="currentColor" role="img">
  <g transform="translate(0.000000,200.000000) scale(0.100000,-0.100000)">
    <path d="M930 1951 c-56 -18 -110 -53 -143 -92 -62 -72 -67 -101 -67 -386 0
-240 -1 -254 -20 -273 -24 -24 -49 -25 -76 -6 -17 13 -20 31 -25 178 -6 177
-16 215 -78 281 -77 84 -224 108 -327 55 -29 -15 -68 -46 -88 -69 -67 -79 -67
-76 -64 -655 l3 -519 23 -45 c34 -65 76 -105 145 -135 51 -23 70 -27 121 -23
103 9 188 64 234 152 24 47 27 62 32 214 4 147 7 165 24 178 25 18 47 18 72 0
18 -13 19 -32 24 -288 5 -262 6 -275 28 -318 34 -65 76 -105 145 -135 51 -23
70 -27 121 -23 103 9 187 64 234 152 27 51 27 51 32 324 5 256 6 275 24 288
25 18 47 18 72 0 17 -13 20 -31 24 -178 4 -146 7 -168 28 -208 34 -65 76 -105
145 -135 51 -23 70 -27 121 -23 103 9 187 64 234 152 l27 51 0 535 0 535 -27
50 c-53 101 -134 150 -248 150 -90 -1 -157 -30 -213 -96 -56 -64 -67 -111 -67
-276 0 -130 -2 -145 -20 -163 -24 -24 -49 -25 -76 -6 -18 13 -19 32 -24 288
-5 272 -5 273 -32 323 -31 60 -67 95 -128 125 -48 24 -147 35 -190 21z m166
-146 c61 -46 64 -65 64 -345 0 -262 5 -295 48 -344 24 -27 91 -56 132 -56 55
0 115 33 147 81 27 41 28 47 33 210 4 149 7 171 26 195 39 52 71 69 133 69 48
0 64 -5 95 -29 67 -51 66 -41 66 -586 0 -545 1 -535 -66 -586 -31 -24 -47 -29
-95 -29 -62 0 -94 17 -133 69 -19 24 -22 46 -26 195 -5 163 -6 169 -33 210
-47 71 -136 99 -214 66 -50 -21 -72 -42 -94 -90 -16 -35 -19 -69 -19 -293 0
-284 -3 -301 -66 -348 -31 -24 -47 -29 -95 -29 -62 0 -94 17 -133 69 -20 26
-21 44 -26 305 l-5 278 -28 42 c-47 71 -136 99 -214 66 -93 -39 -112 -85 -113
-273 0 -164 -9 -195 -66 -238 -31 -24 -47 -29 -95 -29 -62 0 -94 17 -133 69
-21 27 -21 38 -21 546 0 508 0 519 21 546 39 52 71 69 133 69 48 0 64 -5 95
-29 58 -43 66 -74 66 -239 0 -128 2 -147 23 -187 66 -131 245 -132 314 -1 22
43 23 52 23 297 0 155 4 264 11 281 37 98 160 133 245 68z" />
  </g>
</svg>
